<svg xmlns="http://www.w3.org/2000/svg" xmlns:xlink="http://www.w3.org/1999/xlink" version="1.1" id="Layer_1" x="0px" y="0px" viewBox="5.0 -10.0 100.0 135.0" enable-background="new 0 0 100 100" xml:space="preserve" height="100px" width="100px">
<path id="Share" d="M80.3,33.5V95H18.8V33.5h22.9l0,5.4H24.2v50.7h50.6V38.9H58.9l0-5.4H80.3z M34.7,25.8l12.9-12.9v46  c0,1.4,1.2,2.6,2.6,2.6c1.4,0,2.6-1.2,2.6-2.6v-46l12.9,12.9c0.8,0.8,2.2,0.8,3.1,0c0.8-0.8,0.8-2.2,0-3.1L51.6,5.6  c-0.8-0.8-2-0.8-2.7,0L31.6,22.8c-0.8,0.8-0.8,2.2,0,3.1C32.5,26.7,33.9,26.7,34.7,25.8z"/>
<text x="0.0" y="117.5" font-size="5.0" font-weight="bold" font-family="Helvetica Neue, Helvetica, Arial-Unicode, Arial, Sans-serif" fill="#000000">Created by Tom Walsh</text><text x="0.0" y="122.5" font-size="5.0" font-weight="bold" font-family="Helvetica Neue, Helvetica, Arial-Unicode, Arial, Sans-serif" fill="#000000">from the Noun Project</text></svg>